
        <svg xmlns="http://www.w3.org/2000/svg" xmlns:xlink="http://www.w3.org/1999/xlink" version="1.1" width="3138.6572037948863" height="687.5555395394722" viewBox="0 0 3138.6572037948863 687.5555395394722">
			
			<g transform="scale(6.9328601897443125) translate(10, 10)">
				<defs id="SvgjsDefs8692"/><g id="SvgjsG8693" featureKey="nameLeftFeature-0" transform="matrix(2.196045433567376,0,0,2.196045433567376,-1.887061093813879,11.089642209444028)" fill="#fff"><path d="M6.4648 20.18555 c-2.9492 0 -5.1563 -1.4063 -5.6055 -3.8672 l2.4023 -0.55664 c0.25391 1.6016 1.5723 2.4805 3.291 2.4805 c1.3574 0 2.5879 -0.57617 2.5684 -2.041 c-0.019531 -1.5234 -1.709 -1.9629 -3.5352 -2.4805 c-2.1094 -0.61523 -4.2773 -1.3184 -4.2773 -3.877 c0 -2.5977 2.1289 -3.9648 4.7754 -3.9648 c2.4414 0 4.7559 1.0254 5.293 3.5254 l-2.2559 0.56641 c-0.3125 -1.4844 -1.4648 -2.1387 -2.9199 -2.1387 c-1.2988 0 -2.5293 0.55664 -2.5293 1.9727 c0 1.2891 1.4746 1.6895 3.1641 2.1582 c2.1777 0.60547 4.6973 1.3477 4.6973 4.1406 c0 2.8809 -2.4121 4.082 -5.0684 4.082 z M23.6720625 20 l-1.1035 -3.0957 l-6.084 0 l-1.0938 3.0957 l-2.4121 0 l5.127 -13.926 l2.8418 0 l5.127 13.926 l-2.4023 0 z M17.1972625 14.9023 l4.668 0 l-2.334 -6.582 z M36.3964375 8.154 l-5.5176 0 l0 3.8477 l4.7852 0 l0 2.0703 l-4.7852 0 l0 5.9277 l-2.3633 0 l0 -13.926 l7.8809 0 l0 2.0801 z M46.884740625 8.154 l-5.4102 0 l0 3.8574 l4.7852 0 l0 2.0605 l-4.7852 0 l0 3.8379 l5.4102 0 l0 2.0898 l-7.7734 0 l0 -13.926 l7.7734 0 l0 2.0801 z M62.304684375 12.685500000000001 c1.6113 0.42969 2.6953 1.5137 2.6953 3.4766 c0 2.2754 -1.4746 3.8379 -4.1602 3.8379 l-5.5762 0 l0 -13.926 l4.3652 0 c2.7539 0 4.3652 1.4746 4.3652 3.75 c0 1.2793 -0.57617 2.3242 -1.6895 2.8613 z M59.638684375 8.047 l-2.1191 0 l0 3.916 l2.3535 0 c1.25 0 1.9531 -0.88867 1.9531 -1.9922 c0 -1.0938 -0.76172 -1.9238 -2.1875 -1.9238 z M60.419884375 17.9687 c1.582 0 2.3145 -0.9668 2.3145 -2.0605 c0 -1.1426 -0.75195 -2.0996 -2.4023 -2.0996 l-2.8125 0 l0 4.1602 l2.9004 0 z M77.7635 6.074 l-4.5801 7.2754 l0 6.6504 l-2.3438 0 l0 -6.6211 l-4.5996 -7.3047 l2.6172 0 l3.1445 5.2051 l3.1543 -5.2051 l2.6074 0 z M87.74410625 6.074 l0 2.0801 l-3.4375 0 l0 11.846 l-2.3242 0 l0 -11.846 l-3.4473 0 l0 -2.0801 l9.209 0 z M97.978490625 8.154 l-5.4102 0 l0 3.8574 l4.7852 0 l0 2.0605 l-4.7852 0 l0 3.8379 l5.4102 0 l0 2.0898 l-7.7734 0 l0 -13.926 l7.7734 0 l0 2.0801 z"/></g><g id="SvgjsG8694" featureKey="inlineSymbolFeature-0" transform="matrix(0.22201238446058683,0,0,0.22201238446058683,215.48853434704108,-16.83746246377914)" fill="#fff"><g xmlns="http://www.w3.org/2000/svg"><path d="M244.6,380.1c-5-9.3-17.7-6.3-26.2-7.2c-16.3-3.5-27.1-2.6-32,3c-11.9,15.7,19.6,30.8,42.7,33.3   C243,409.4,251.9,395.2,244.6,380.1z M232.8,396.3c-1.5,0.7-3.1,1-4.7,0.8c-19.7-3.9-29.2-10.5-31.7-13.6c2.3-0.7,9-1.2,19.9,1.3   c4.8,1,13.5-0.5,17.8,1.1C235.8,389.4,235.6,394.6,232.8,396.3z"/><path d="M266.6,99.5V82c0-3.3-2.6-6-5.9-6.1C157.6,73.2,72.1,162.3,79.3,265.2c-0.1,0.8,0,1.6,0.2,2.4c3.9,55.3,35,107.4,82.1,137   c29.9,19,64.4,28.7,99.5,27.8c1.4-0.1,2.7-0.7,3.7-1.6c1.2-1.1,1.9-2.6,1.9-4.2C266.6,426.5,266.6,99.7,266.6,99.5z M254.6,194.3   c-1,0.5-3.4,0.4-8.7-2.4l-12.2-6.4c-4.4-2.2-7.1-3.9-5.9-8.8c1.1-5.8,4.7-11.7,6.9-17.5c3.7-9.5,3.4-18.2-0.6-24.6   c-2.9-4.5-7.2-7.2-11-9.5c-4.9-2.9-8.2-5.1-8.3-10.3c12.2,0.7,25,3.3,40-3.7V194.3z M126.1,229.4c11.5,14.8,20.5,17.4,41.1,14.8   c8.6-1,15.5-6.7,21.5-11.7c9-7.5,12.1-9.1,16.3-5.9c14.9,11.2,20,16.8,21.8,19.3c-19.5,3.4-53.9-1.4-56.6,26.8   c-0.9,14.6,8.8,19.4,16.6,23.2c2.5,1.2,5.1,2.5,7.6,4.1c16.8,10.7,16.8,16,16.8,16.2c0,0.8-1.4,1.8-2.6,2.5   c-2.8,1.6-7.7-0.8-13-3.2c-4.9-2.3-9.9-4.7-15.4-5.1c-4.9-0.5-5.7-1.5-7.6-4c-2-2.6-4.8-6.2-11.3-9c-7.1-2.9-11.4,2.7-14,5.7   c-5.5-3.9-12.3-10.3-17.3-14.7c-3.6-3.8-3.5-14.8-4.9-20.4c-4.7-22.5-17.5-31.9-34.2-19.4c0.7-20.4,5.2-40.7,13.2-59.7   c11.3,3.1,21.7-6.9,28.9-13.8c2.8-2.7,7.3-7.1,9.4-7.7c3.6,4.2,3.9,19.9,1.3,24c-1.3,0.6-5.5,0.4-8.1,0.2c-7-0.4-17.5-1-21.1,8.2   C110.3,210.5,120.2,222.3,126.1,229.4z M113.5,338c-12.5-21.5-20.2-46-22.1-70.9c3.6-6.9,9.9-12.4,13.6-12c4,0.1,8.4,11.3,9.3,20.9   c0.9,7.3,2.1,16.3,7.8,21.4c6.3,5.6,14.9,13.8,21.1,17.4c7.5,4.1,12-2.6,14.9-5.6c2.6,1.4,3.7,2.8,5.1,4.6c3.2,4.2,6.6,7.7,16,8.6   c8.7,1.1,18,9.1,27.4,9c9.1,0.1,17-8.2,16.7-14.7c1.2-10.1-16.3-24.6-31.2-31.4c-8-3.9-10.3-5.3-9.9-11.7   c1.7-22.4,52.7-6.5,57.1-23.5c2.3-7.6-4.5-16-27.1-32.9c-12.4-9.4-23.2-0.4-31.2,6.2c-5,4.1-10.1,8.4-15.2,9   c-18.3,2.3-22,0.2-30.5-10.6c-3.1-3.7-11.2-13.4-9.6-17.4c0.8-1.3,6.8-0.7,9.3-0.7c6.6,0.4,14.1,0.8,18.3-4.9   c6.2-8.3,6.3-33.5-3.8-41.2c-8.6-6.6-17.6,2-24.7,8.9c-7.7,7.4-12,10.4-15.1,10.9c27.3-53.4,85-89,144.9-89.5v9   c-19.2,16.1-48-3.3-51.6,13c-0.9,4.8-0.3,9.9,1.9,14.5c2.7,5.4,7.5,8.3,11.8,10.9c3,1.8,5.8,3.6,7.2,5.8c3.5,6.4-0.5,14-3,19.6   c-7,14.2-9.6,27.7,7.2,35.5c0,0,12.2,6.4,12.2,6.4c2.5,1.4,8.8,4.5,14.3,4v213.9C197.7,420.1,141.8,387.6,113.5,338z"/><path d="M293.9,146.2h8.7c8.7,0,15.8-7.1,15.8-15.8v-27.2c0-8.7-7.1-15.8-15.8-15.8h-8.7c-8.7,0-15.8,7.1-15.8,15.8v27.2   C278.1,139.1,285.2,146.2,293.9,146.2z M290.1,103.2c0-2.1,1.7-3.8,3.8-3.8h8.7c2.1,0,3.8,1.7,3.8,3.8v27.2c0,2.1-1.7,3.8-3.8,3.8   h-8.7c-2.1,0-3.8-1.7-3.8-3.8V103.2z"/><path d="M332.6,146.1c3.3,0,6-2.7,6-6V93.4c0-3.3-2.7-6-6-6s-6,2.7-6,6v46.7C326.6,143.4,329.3,146.1,332.6,146.1z"/><path d="M333.9,365.8c-2.8-2.3-6.3-3.6-10-3.6h-8.7c-8.7,0-15.8,7.1-15.8,15.8v27.2c0,8.7,7.1,15.8,15.8,15.8c0,0,8.7,0,8.7,0   c8.7,0.2,16.3-7.5,15.7-16.1c0,0,0-27,0-27C339.6,373.1,337.5,368.7,333.9,365.8z M327.4,406.8c-0.5,1.3-1.9,2.2-3.5,2.2h-8.7   c-2.1,0-3.8-1.7-3.8-3.8V378c0-2.1,1.7-3.8,3.8-3.8h8.7c2,0,3.7,1.6,3.7,3.7c0,0,0,27.2,0,27.2   C327.6,405.7,327.6,406.1,327.4,406.8z"/><path d="M284.1,362.3c-3.3,0-6,2.7-6,6V415c0,3.3,2.7,6,6,6s6-2.7,6-6v-46.7C290.1,365,287.4,362.3,284.1,362.3z"/><path d="M384.9,267.9v-27.2c0-8.7-7.1-15.8-15.8-15.8h-8.7c-8.7,0-15.8,7.1-15.8,15.8v27.2c0,8.7,7.1,15.8,15.8,15.8h8.7   C377.8,283.7,384.9,276.6,384.9,267.9z M372.9,267.9c0,2.1-1.7,3.8-3.8,3.8h-8.7c-2.1,0-3.8-1.7-3.8-3.8v-27.2   c0-2.1,1.7-3.8,3.8-3.8h8.7c2.1,0,3.8,1.7,3.8,3.8V267.9z"/><path d="M318.4,267.9v-27.2c0-8.7-7.1-15.8-15.8-15.8h-8.7c-8.7,0-15.8,7.1-15.8,15.8v27.2c0,8.7,7.1,15.8,15.8,15.8h8.7   C311.3,283.7,318.4,276.6,318.4,267.9z M290.1,267.9v-27.2c0-2.1,1.7-3.8,3.8-3.8h8.7c2.1,0,3.8,1.7,3.8,3.8v27.2   c0,2.1-1.7,3.8-3.8,3.8h-8.7C291.8,271.7,290.1,270,290.1,267.9z"/><path d="M422.7,224.9c-3.3,0-6,2.7-6,6v46.7c0,3.3,2.7,6,6,6s6-2.7,6-6v-46.7C428.7,227.6,426,224.9,422.7,224.9z"/><path d="M398.8,224.9c-3.3,0-6,2.7-6,6v46.7c0,3.3,2.7,6,6,6s6-2.7,6-6v-46.7C404.8,227.6,402.1,224.9,398.8,224.9z"/><path d="M336.7,277.6v-46.7c-0.3-7.9-11.7-8-12,0c0,0,0,46.7,0,46.7c0,3.3,2.7,6,6,6S336.7,280.9,336.7,277.6z"/><path d="M370.9,156.1h-8.7c-8.6,0-15.6,7-15.8,15.7c-0.1,0,0.1,27.2,0,27.3c0,8.7,7.1,15.8,15.8,15.8c0,0,8.7,0,8.7,0   c8.7,0,15.8-7.1,15.8-15.8v-27.2C386.7,163.2,379.6,156.1,370.9,156.1z M374.7,199.1c0,2.1-1.7,3.8-3.8,3.8h-8.7   c-2.1,0-3.8-1.7-3.8-3.8V172c0.1-2.1,1.8-3.9,3.8-3.9h8.7c2.1,0,3.8,1.7,3.8,3.8V199.1z"/><path d="M329.3,156.6c-3.2-0.9-9.5-0.4-12.7-0.5c-8.7,0-15.8,7.1-15.8,15.8l-0.1,27.1c0,8.7,7.1,15.8,15.8,15.8h8.7   c8.7,0,15.8-7.1,15.8-15.8v-27.2C341,164.7,336.2,158.4,329.3,156.6z M329,199c0,2.1-1.7,3.8-3.8,3.8h-8.7c-2.1,0-3.8-1.7-3.8-3.8   c0-4.7,0.1-22.8,0.1-27.1c0-2.1,1.7-3.8,3.8-3.8c0.3,0,9.4-0.1,9.5,0.1c1.7,0.4,2.9,1.9,2.9,3.6C329,171.8,329,199,329,199z"/><path d="M284.1,214.9c3.3,0,6-2.7,6-6v-46.8c0-3.3-2.7-6-6-6s-6,2.7-6,6v46.8C278.1,212.2,280.8,214.9,284.1,214.9z"/><path d="M324,293.6h-8.7c-8.7,0-15.8,7.1-15.8,15.8v27.2c0,8.7,7.1,15.8,15.8,15.8h8.7c8.7,0,15.8-7.1,15.8-15.8v-27.2   C339.8,300.7,332.7,293.6,324,293.6z M327.8,336.6c0,2.1-1.7,3.8-3.8,3.8h-8.7c-2.1,0-3.8-1.7-3.8-3.8v-27.2c0-2.1,1.7-3.8,3.8-3.8   h8.7c2.1,0,3.8,1.7,3.8,3.8V336.6z"/><path d="M284.1,293.6c-3.3,0-6,2.7-6,6v46.7c0,3.3,2.7,6,6,6s6-2.7,6-6v-46.7C290.1,296.3,287.4,293.6,284.1,293.6z"/><path d="M357.6,293.6c-3.3,0-6,2.7-6,6v46.7c0,3.3,2.7,6,6,6s6-2.7,6-6v-46.7C363.6,296.3,360.9,293.6,357.6,293.6z"/><path d="M380.7,293.6c-3.3,0-6,2.7-6,6v46.7c0,3.3,2.7,6,6,6s6-2.7,6-6v-46.7C386.7,296.3,384,293.6,380.7,293.6z"/></g></g><g id="SvgjsG8695" featureKey="nameRightFeature-0" transform="matrix(2.1664528186420053,0,0,2.1664528186420053,315.7882223689729,11.665842101841406)" fill="#fff"><path d="M9.9512125 17.4121 l4.4238 0 l0 2.5879 l-7.3535 0 l0 -14.111 l2.9297 0 l0 11.523 z M26.05515625 20 l-1.0254 -2.9102 l-5.9277 0 l-1.0254 2.9102 l-2.998 0 l5.1953 -14.111 l3.584 0 l5.1953 14.111 l-2.998 0 z M19.96095625 14.6387 l4.209 0 l-2.0996 -5.9863 z M38.750003125 12.5488 c1.5918 0.43945 2.6563 1.4844 2.6563 3.4961 c0 2.3828 -1.4453 3.9551 -4.4238 3.9551 l-5.8105 0 l0 -14.111 l4.5703 0 c3.0469 0 4.6484 1.4648 4.6484 3.8672 c0 1.2402 -0.53711 2.2559 -1.6406 2.793 z M35.771503125 8.32 l-1.7773 0 l0 3.3203 l1.9043 0 c1.25 0 1.7969 -0.74219 1.7969 -1.6992 c0 -0.9375 -0.61523 -1.6211 -1.9238 -1.6211 z M36.435503125 17.4902 c1.582 0 2.1289 -0.84961 2.1289 -1.7676 c0 -0.9375 -0.53711 -1.8262 -2.1875 -1.8262 l-2.3828 0 l0 3.5938 l2.4414 0 z M48.7012 20.19531 c-3.0273 0 -5.3906 -1.4551 -5.8203 -4.1016 l3.0273 -0.69336 c0.19531 1.582 1.3574 2.4023 2.9102 2.4023 c1.1914 0 2.1387 -0.52734 2.1289 -1.7188 c-0.0097656 -1.3281 -1.5723 -1.748 -3.291 -2.2754 c-2.0703 -0.64453 -4.2871 -1.4063 -4.2871 -4.0039 c0 -2.627 2.1484 -4.1113 4.9805 -4.1113 c2.4805 0 4.9805 1.0059 5.5469 3.7109 l-2.832 0.70313 c-0.26367 -1.4063 -1.2109 -2.0215 -2.5391 -2.0215 c-1.1816 0 -2.1875 0.48828 -2.1875 1.6504 c0 1.084 1.3867 1.4453 2.9883 1.9238 c2.1289 0.64453 4.6484 1.4648 4.6484 4.2773 c0 2.998 -2.5098 4.2578 -5.2734 4.2578 z"/></g>
			</g>
		</svg>
	